<svg xmlns="http://www.w3.org/2000/svg" version="1.1" xmlns:xlink="http://www.w3.org/1999/xlink" xmlns:svgjs="http://svgjs.dev/svgjs" width="1000" height="373" viewBox="0 0 1000 373"><g transform="matrix(1,0,0,1,-0.6060606060606233,-0.23825462599131697)"><svg viewBox="0 0 396 148" data-background-color="#ffffff" preserveAspectRatio="xMidYMid meet" height="373" width="1000" xmlns="http://www.w3.org/2000/svg" xmlns:xlink="http://www.w3.org/1999/xlink"><g id="tight-bounds" transform="matrix(1,0,0,1,0.2400000000000091,0.09453534757832927)"><svg viewBox="0 0 395.52 147.81092930484334" height="147.81092930484334" width="395.52"><g><svg viewBox="0 0 683.0186497786046 255.2528857107476" height="147.81092930484334" width="395.52"><g transform="matrix(1,0,0,1,287.49864977860466,0)"><svg viewBox="0 0 395.52 255.2528857107476" height="255.2528857107476" width="395.52"><g id="textblocktransform"><svg viewBox="0 0 395.52 255.2528857107476" height="255.2528857107476" width="395.52" id="textblock"><g><svg viewBox="0 0 395.52 182.42976744186046" height="182.42976744186046" width="395.52"><g transform="matrix(1,0,0,1,0,0)"><svg width="395.52" viewBox="3.05 -37.99 100.78 46.49" height="182.42976744186046" data-palette-color="#8789fe"><g class="wordmark-text-0" data-fill-palette-color="primary" id="text-0"><path d="M35.89-17.9L35.89-17.9Q35.89-11.04 33.13-6.49 30.37-1.95 25.34-0.34L25.34-0.34 33.84 8.5 27.81 8.5 20.85 0.44 19.51 0.49Q11.62 0.49 7.34-4.33 3.05-9.16 3.05-17.94L3.05-17.94Q3.05-26.66 7.35-31.46 11.65-36.25 19.56-36.25L19.56-36.25Q27.25-36.25 31.57-31.37 35.89-26.49 35.89-17.9ZM7.45-17.9L7.45-17.9Q7.45-10.64 10.53-6.9 13.62-3.15 19.51-3.15L19.51-3.15Q25.44-3.15 28.47-6.88 31.49-10.62 31.49-17.9L31.49-17.9Q31.49-25.1 28.48-28.82 25.46-32.54 19.56-32.54L19.56-32.54Q13.62-32.54 10.53-28.8 7.45-25.05 7.45-17.9ZM47.29-37.99L47.29 0 43.23 0 43.23-37.99 47.29-37.99ZM78.24 0L74.19 0 74.19-17.31Q74.19-20.58 72.7-22.19 71.21-23.8 68.04-23.8L68.04-23.8Q63.81-23.8 61.87-21.51 59.93-19.21 59.93-13.99L59.93-13.99 59.93 0 55.88 0 55.88-37.99 59.93-37.99 59.93-26.49Q59.93-24.41 59.74-23.05L59.74-23.05 59.98-23.05Q61.18-24.98 63.39-26.09 65.6-27.2 68.43-27.2L68.43-27.2Q73.33-27.2 75.79-24.87 78.24-22.53 78.24-17.46L78.24-17.46 78.24 0ZM103.83-7.3L103.83-7.3Q103.83-3.56 101.04-1.54 98.26 0.49 93.23 0.49L93.23 0.49Q87.91 0.49 84.93-1.2L84.93-1.2 84.93-4.96Q86.86-3.98 89.07-3.42 91.28-2.86 93.33-2.86L93.33-2.86Q96.5-2.86 98.21-3.87 99.92-4.88 99.92-6.96L99.92-6.96Q99.92-8.52 98.56-9.63 97.21-10.74 93.28-12.26L93.28-12.26Q89.54-13.65 87.97-14.69 86.39-15.72 85.62-17.04 84.86-18.36 84.86-20.19L84.86-20.19Q84.86-23.46 87.52-25.35 90.18-27.25 94.82-27.25L94.82-27.25Q99.14-27.25 103.26-25.49L103.26-25.49 101.82-22.19Q97.8-23.85 94.52-23.85L94.52-23.85Q91.64-23.85 90.18-22.95 88.71-22.05 88.71-20.46L88.71-20.46Q88.71-19.38 89.26-18.63 89.81-17.87 91.03-17.19 92.25-16.5 95.72-15.21L95.72-15.21Q100.48-13.48 102.15-11.72 103.83-9.96 103.83-7.3Z" fill="#8789fe" data-fill-palette-color="primary"></path></g></svg></g></svg></g><g transform="matrix(1,0,0,1,0,225.4970572204651)"><svg viewBox="0 0 232.209792 29.755828490282457" height="29.755828490282457" width="232.209792"><g transform="matrix(1,0,0,1,0,0)"><svg width="232.209792" viewBox="2.25 -38.85 385.85 49.45" height="29.755828490282457" data-palette-color="#8789fe"><path d="M14.85-35Q17.5-35 19.53-34.08 21.55-33.15 23.55-31.25L23.55-31.25 21.05-28.7Q19.45-30.1 18.07-30.7 16.7-31.3 14.85-31.3L14.85-31.3Q11.4-31.3 9.22-28.1 7.05-24.9 7.05-17.25L7.05-17.25Q7.05-11.9 7.88-8.83 8.7-5.75 10.33-4.45 11.95-3.15 14.45-3.15L14.45-3.15Q17.15-3.15 19.4-4.65L19.4-4.65 19.4-15.35 14.7-15.35 14.2-19.05 23.8-19.05 23.8-2.45Q19.4 0.6 14.4 0.6L14.4 0.6Q2.25 0.6 2.25-17.25L2.25-17.25Q2.25-23.1 3.95-27.1 5.65-31.1 8.5-33.05 11.35-35 14.85-35L14.85-35ZM30.05-26.35L34.45-26.35 34.45 0 30.05 0 30.05-26.35ZM32.2-38.85Q33.55-38.85 34.35-38 35.15-37.15 35.15-35.8L35.15-35.8Q35.15-34.55 34.32-33.7 33.5-32.85 32.2-32.85L32.2-32.85Q30.9-32.85 30.07-33.7 29.25-34.55 29.25-35.8L29.25-35.8Q29.25-37.1 30.07-37.98 30.9-38.85 32.2-38.85L32.2-38.85ZM54-26.35L58.4-26.35 51.2 0 46 0 38.6-26.35 43.15-26.35 48.6-3.9 54-26.35ZM79.59-13.95Q79.59-12.85 79.49-11.65L79.49-11.65 65.69-11.65Q65.89-6.9 67.27-4.95 68.64-3 71.19-3L71.19-3Q72.84-3 74.14-3.53 75.44-4.05 76.84-5.2L76.84-5.2 78.79-2.55Q75.49 0.6 71.04 0.6L71.04 0.6Q66.34 0.6 63.74-2.88 61.14-6.35 61.14-12.9L61.14-12.9Q61.14-19.45 63.62-23.18 66.09-26.9 70.59-26.9L70.59-26.9Q74.94-26.9 77.27-23.63 79.59-20.35 79.59-13.95L79.59-13.95ZM75.34-14.9L75.34-15.25Q75.34-19.55 74.19-21.5 73.04-23.45 70.59-23.45L70.59-23.45Q68.39-23.45 67.14-21.48 65.89-19.5 65.69-14.9L65.69-14.9 75.34-14.9ZM105.79-3.95L107.49-1.2Q105.24 0.6 102.44 0.6L102.44 0.6Q99.49 0.6 97.86-1.15 96.24-2.9 96.24-5.85L96.24-5.85 96.24-22.9 92.69-22.9 92.69-26.35 96.24-26.35 96.24-32.3 100.64-32.85 100.64-26.35 105.74-26.35 105.29-22.9 100.64-22.9 100.64-5.8Q100.64-3.05 102.99-3.05L102.99-3.05Q103.79-3.05 104.39-3.25 104.99-3.45 105.79-3.95L105.79-3.95ZM121.89-26.9Q124.74-26.9 126.44-24.85 128.14-22.8 128.14-19.35L128.14-19.35 128.14 0 123.74 0 123.74-18.75Q123.74-21.3 123.01-22.38 122.29-23.45 120.84-23.45L120.84-23.45Q117.99-23.45 115.54-18.55L115.54-18.55 115.54 0 111.14 0 111.14-36.9 115.54-37.35 115.54-22.65Q116.79-24.75 118.26-25.83 119.74-26.9 121.89-26.9L121.89-26.9ZM152.28-13.95Q152.28-12.85 152.18-11.65L152.18-11.65 138.38-11.65Q138.58-6.9 139.96-4.95 141.33-3 143.88-3L143.88-3Q145.53-3 146.83-3.53 148.13-4.05 149.53-5.2L149.53-5.2 151.48-2.55Q148.18 0.6 143.73 0.6L143.73 0.6Q139.03 0.6 136.43-2.88 133.83-6.35 133.83-12.9L133.83-12.9Q133.83-19.45 136.31-23.18 138.78-26.9 143.28-26.9L143.28-26.9Q147.63-26.9 149.96-23.63 152.28-20.35 152.28-13.95L152.28-13.95ZM148.03-14.9L148.03-15.25Q148.03-19.55 146.88-21.5 145.73-23.45 143.28-23.45L143.28-23.45Q141.08-23.45 139.83-21.48 138.58-19.5 138.38-14.9L138.38-14.9 148.03-14.9ZM178.98-26.9Q182.78-26.9 184.9-23.45 187.03-20 187.03-13.2L187.03-13.2Q187.03-8.9 185.98-5.8 184.93-2.7 183-1.05 181.08 0.6 178.53 0.6L178.53 0.6Q176.83 0.6 175.33-0.28 173.83-1.15 172.73-2.75L172.73-2.75 172.43 0 168.53 0 168.53-36.9 172.93-37.35 172.93-23.15Q175.28-26.9 178.98-26.9L178.98-26.9ZM177.58-2.9Q182.38-2.9 182.38-13.2L182.38-13.2Q182.38-18.85 181.23-21.13 180.08-23.4 177.93-23.4L177.93-23.4Q175.13-23.4 172.93-19.35L172.93-19.35 172.93-6.3Q173.83-4.75 175-3.83 176.18-2.9 177.58-2.9L177.58-2.9ZM209.98-13.95Q209.98-12.85 209.88-11.65L209.88-11.65 196.08-11.65Q196.28-6.9 197.65-4.95 199.03-3 201.58-3L201.58-3Q203.23-3 204.53-3.53 205.83-4.05 207.23-5.2L207.23-5.2 209.18-2.55Q205.88 0.6 201.43 0.6L201.43 0.6Q196.73 0.6 194.13-2.88 191.53-6.35 191.53-12.9L191.53-12.9Q191.53-19.45 194-23.18 196.48-26.9 200.98-26.9L200.98-26.9Q205.33-26.9 207.65-23.63 209.98-20.35 209.98-13.95L209.98-13.95ZM205.73-14.9L205.73-15.25Q205.73-19.55 204.58-21.5 203.43-23.45 200.98-23.45L200.98-23.45Q198.78-23.45 197.53-21.48 196.28-19.5 196.08-14.9L196.08-14.9 205.73-14.9ZM222.02-26.9Q226.37-26.9 229.47-23.95L229.47-23.95 227.57-21.4Q226.17-22.45 224.87-22.98 223.57-23.5 222.12-23.5L222.12-23.5Q220.37-23.5 219.35-22.53 218.32-21.55 218.32-19.85L218.32-19.85Q218.32-18.2 219.32-17.25 220.32-16.3 223.12-15.3L223.12-15.3Q226.72-14 228.42-12.2 230.12-10.4 230.12-7.3L230.12-7.3Q230.12-3.55 227.6-1.48 225.07 0.6 221.32 0.6L221.32 0.6Q216.32 0.6 212.97-2.85L212.97-2.85 215.27-5.3Q218.07-2.85 221.22-2.85L221.22-2.85Q223.22-2.85 224.42-3.95 225.62-5.05 225.62-7.05L225.62-7.05Q225.62-8.4 225.17-9.25 224.72-10.1 223.62-10.8 222.52-11.5 220.42-12.25L220.42-12.25Q216.92-13.55 215.42-15.33 213.92-17.1 213.92-19.7L213.92-19.7Q213.92-21.7 214.95-23.35 215.97-25 217.82-25.95 219.67-26.9 222.02-26.9L222.02-26.9ZM245.22-3.95L246.92-1.2Q244.67 0.6 241.87 0.6L241.87 0.6Q238.92 0.6 237.3-1.15 235.67-2.9 235.67-5.85L235.67-5.85 235.67-22.9 232.12-22.9 232.12-26.35 235.67-26.35 235.67-32.3 240.07-32.85 240.07-26.35 245.17-26.35 244.72-22.9 240.07-22.9 240.07-5.8Q240.07-3.05 242.42-3.05L242.42-3.05Q243.22-3.05 243.82-3.25 244.42-3.45 245.22-3.95L245.22-3.95ZM269.17-33.9Q267.57-33.9 266.82-33.1 266.07-32.3 266.07-30.55L266.07-30.55 266.07-26.35 271.37-26.35 270.87-22.9 266.07-22.9 266.07 0 261.67 0 261.67-22.9 258.02-22.9 258.02-26.35 261.67-26.35 261.67-30.5Q261.67-33.6 263.54-35.52 265.42-37.45 268.82-37.45L268.82-37.45Q271.57-37.45 274.17-36.1L274.17-36.1 272.87-33Q271.02-33.9 269.17-33.9L269.17-33.9ZM283.81-26.9Q288.51-26.9 291.09-23.43 293.66-19.95 293.66-13.2L293.66-13.2Q293.66-6.85 291.04-3.13 288.41 0.6 283.76 0.6L283.76 0.6Q279.11 0.6 276.51-3.05 273.91-6.7 273.91-13.15L273.91-13.15Q273.91-19.8 276.51-23.35 279.11-26.9 283.81-26.9L283.81-26.9ZM283.81-23.35Q281.16-23.35 279.86-20.98 278.56-18.6 278.56-13.15L278.56-13.15Q278.56-7.75 279.86-5.35 281.16-2.95 283.76-2.95L283.76-2.95Q286.41-2.95 287.71-5.35 289.01-7.75 289.01-13.2L289.01-13.2Q289.01-18.6 287.71-20.98 286.41-23.35 283.81-23.35L283.81-23.35ZM309.66-26.9Q310.76-26.9 311.66-26.6L311.66-26.6 310.91-22.35Q309.91-22.6 309.11-22.6L309.11-22.6Q307.16-22.6 305.91-20.85 304.66-19.1 303.96-15.5L303.96-15.5 303.96 0 299.56 0 299.56-26.35 303.36-26.35 303.71-21.45Q305.56-26.9 309.66-26.9L309.66-26.9ZM343.06-26.35L335.86 0.15Q334.61 4.7 332.16 7.35 329.71 10 325.36 10.6L325.36 10.6 324.86 7.25Q328.01 6.55 329.46 4.95 330.91 3.35 331.91 0L331.91 0 330.26 0 323.16-26.35 327.66-26.35 333.16-3.2 338.61-26.35 343.06-26.35ZM355.7-26.9Q360.4-26.9 362.98-23.43 365.55-19.95 365.55-13.2L365.55-13.2Q365.55-6.85 362.93-3.13 360.3 0.6 355.65 0.6L355.65 0.6Q351 0.6 348.4-3.05 345.8-6.7 345.8-13.15L345.8-13.15Q345.8-19.8 348.4-23.35 351-26.9 355.7-26.9L355.7-26.9ZM355.7-23.35Q353.05-23.35 351.75-20.98 350.45-18.6 350.45-13.15L350.45-13.15Q350.45-7.75 351.75-5.35 353.05-2.95 355.65-2.95L355.65-2.95Q358.3-2.95 359.6-5.35 360.9-7.75 360.9-13.2L360.9-13.2Q360.9-18.6 359.6-20.98 358.3-23.35 355.7-23.35L355.7-23.35ZM388.1-26.35L388.1 0 384.3 0 384-3.7Q382.75-1.55 381.18-0.48 379.6 0.6 377.5 0.6L377.5 0.6Q374.65 0.6 372.95-1.35 371.25-3.3 371.25-6.45L371.25-6.45 371.25-26.35 375.65-26.35 375.65-6.9Q375.65-2.85 378.5-2.85L378.5-2.85Q380.15-2.85 381.4-4.03 382.65-5.2 383.7-7.3L383.7-7.3 383.7-26.35 388.1-26.35Z" opacity="1" transform="matrix(1,0,0,1,0,0)" fill="#8789fe" class="slogan-text-1" data-fill-palette-color="secondary" id="text-1"></path></svg></g></svg></g></svg></g></svg></g><g transform="matrix(1,0,0,1,0,33.533133067175214)"><svg viewBox="0 0 244.43135999999998 188.18661957639716" height="188.18661957639716" width="244.43135999999998"><g><svg xmlns="http://www.w3.org/2000/svg" xmlns:xlink="http://www.w3.org/1999/xlink" version="1.1" x="0" y="0" viewBox="0.2448749806101346 11.69375 99.51025003877973 76.61250000000001" enable-background="new 0 0 100 100" xml:space="preserve" height="188.18661957639716" width="244.43135999999998" class="icon-icon-0" data-fill-palette-color="accent" id="icon-0"><path fill-rule="evenodd" clip-rule="evenodd" d="M97.942 26.338c-0.795-7.177-5.913-12.648-13.119-13.118-31.149-2.035-38.497-2.035-69.647 0C7.97 13.69 2.853 19.159 2.058 26.338c-2.418 21.825-2.417 25.499 0 47.324C2.853 80.841 7.973 86.31 15.176 86.78c31.151 2.035 38.498 2.035 69.647 0 7.204-0.47 12.324-5.941 13.119-13.118C100.359 51.837 100.36 48.163 97.942 26.338zM64.609 51.886L37.664 68.123c-0.699 0.421-1.672 0.432-2.382 0.03-0.71-0.4-1.282-1.101-1.282-1.916V33.763c0-0.815 0.572-1.516 1.282-1.917 0.71-0.401 1.602-0.39 2.301 0.031l26.985 16.237c0.68 0.41 1.086 1.092 1.086 1.886C65.654 50.794 65.289 51.477 64.609 51.886z" fill="#8789fe" data-fill-palette-color="accent"></path></svg></g></svg></g></svg></g><defs></defs></svg><rect width="395.52" height="147.81092930484334" fill="none" stroke="none" visibility="hidden"></rect></g></svg></g></svg>